<?xml version="1.0" encoding="utf-8"?>
<!-- Generator: Adobe Illustrator 26.5.0, SVG Export Plug-In . SVG Version: 6.00 Build 0)  -->
<svg version="1.1" id="Layer_1" xmlns="http://www.w3.org/2000/svg" xmlns:xlink="http://www.w3.org/1999/xlink" x="0px" y="0px"
	 viewBox="0 0 360 360" style="enable-background:new 0 0 360 360;" xml:space="preserve">
<g>
	<g>
		<path d="M161.88,163.74c0.3,1.47,0.47,2.73,0.82,3.93c0.33,1.12,0.85,2.18,1.42,3.22c-1.08-7.4,1-13.47,7.07-18.1
			c0.24,0.22,0.4,0.38,0.57,0.54c-4.18,5.95-4.89,12.1-0.71,18.19c3.2,4.67,8.03,7.14,13.63,6.35c10.91-1.54,14.91-8.57,13.7-19.31
			c1.3,0.63,2,1.49,2.43,2.46c0.95,2.13,2.02,4.25,2.53,6.5c0.5,2.21,0.61,4.59,0.44,6.85c-0.16,2.07-0.65,4.21-1.48,6.1
			c-1.37,3.11-3.2,6.03-5.97,8.14c-1.84,1.4-3.76,2.8-5.84,3.77c-1.88,0.87-4,1.38-6.07,1.64c-3.39,0.43-6.71-0.04-10.01-1.13
			c-3.23-1.06-5.97-2.79-8.33-5.08c-2.8-2.7-4.69-5.99-5.81-9.79c-1.15-3.89-0.99-7.7,0.03-11.52
			C160.54,165.59,160.61,164.47,161.88,163.74z"/>
		<path d="M182.29,149.4c-5.59,2.32-8.21,6.77-7.72,12.45c0.32,3.8,4.65,8.27,8.66,8.77c6.5,0.8,10.41-1.33,13.45-7.94
			c1.02,2.65-1.84,8.24-5.64,10.66c-5.75,3.66-12.16,3.14-16.94-1.42c-4.85-4.63-5.5-10.14-2.45-16.04
			C173.8,151.69,179.44,148.62,182.29,149.4z"/>
		<path d="M178.56,164.38c3.22,1.57,6.43,1.81,9.72,0.6c3.26-1.2,5.25-3.76,6.9-6.71c0.88,3.01,0.29,5.71-1.79,7.88
			c-2.82,2.94-5.97,3.95-10.42,2.5C180.92,167.97,179.11,166.71,178.56,164.38z"/>
	</g>
</g>
</svg>
