<?xml version="1.0" encoding="utf-8"?>
<!-- Generator: Adobe Illustrator 26.5.0, SVG Export Plug-In . SVG Version: 6.00 Build 0)  -->
<svg version="1.1" id="Layer_1" xmlns="http://www.w3.org/2000/svg" xmlns:xlink="http://www.w3.org/1999/xlink" x="0px" y="0px"
	 viewBox="0 0 360 360" style="enable-background:new 0 0 360 360;" xml:space="preserve">
<style type="text/css">
	.st0{fill:#44D62C;}
</style>
<g>
	<path class="st0" d="M44.46,174.75c-0.22-2.16-0.39-4.03-0.6-5.9c-0.2-1.72-0.52-3.42-0.64-5.15c-0.29-4.23-0.56-8.46-0.72-12.7
		c-0.16-4.02-0.3-8.05-0.22-12.07c0.07-3.56,0.25-7.13,0.73-10.65c0.77-5.62,1.63-11.25,2.84-16.8c1.08-4.91,2.5-9.76,4.1-14.53
		c2.32-6.92,5.23-13.61,9.09-19.82c3.03-4.88,6.14-9.74,9.49-14.41c2.25-3.13,4.97-5.93,7.54-8.83c1.59-1.78,3.2-3.56,4.95-5.18
		c3.35-3.08,6.79-6.06,10.22-9.05c1.36-1.19,2.8-2.3,4.18-3.47c1.73-1.47,3.71-1.28,5.71-0.87c0.91,0.19,1.8,0.49,2.91,0.79
		c-0.54,0.91-1.04,1.76-1.55,2.61c-3.27,5.44-6.66,10.8-9.77,16.33c-4.81,8.55-8.68,17.55-11.41,26.98
		c-1.43,4.94-2.51,10-3.52,15.05c-0.63,3.15-0.93,6.38-1.21,9.59c-0.28,3.12-0.57,6.26-0.45,9.38c0.17,4.29,0.68,8.57,1.14,12.84
		c0.74,6.76,2.55,13.28,4.8,19.67c2.33,6.63,5.23,13.01,8.84,19.05c1.99,3.33,3.87,6.73,6.08,9.91c2.7,3.9,5.54,7.73,8.58,11.36
		c2.95,3.53,6.03,7,9.42,10.1c4.06,3.71,8.41,7.12,12.8,10.46c4.85,3.69,10.17,6.65,15.67,9.24c7.45,3.51,15.16,6.28,23.26,7.86
		c3.5,0.68,7,1.36,10.52,1.88c2.22,0.33,4.49,0.44,6.74,0.5c4.86,0.14,9.73,0.31,14.59,0.21c3.42-0.07,6.84-0.5,10.25-0.92
		c3.73-0.46,7.47-0.98,11.16-1.7c5.56-1.09,11.06-2.52,16.33-4.62c4.21-1.68,8.41-3.44,12.47-5.45c6.37-3.15,12.26-7.11,17.91-11.43
		c4.89-3.74,9.49-7.81,13.71-12.29c5.03-5.34,9.63-11.02,13.36-17.36c2.14-3.65,4.32-7.3,6.16-11.11
		c3.72-7.69,6.56-15.72,8.46-24.06c0.92-4.04,1.72-8.12,2.38-12.21c0.37-2.29,0.42-4.65,0.51-6.98c0.13-3.18,0.3-6.37,0.22-9.55
		c-0.11-4.28-0.42-8.55-0.7-12.82c-0.19-2.92-0.46-5.83-0.71-8.74c-0.23-2.67-0.45-5.35-0.73-8.02c-0.14-1.36,0.51-2.05,1.69-2.46
		c0.52-0.18,1.02-0.4,1.57-0.62c0.76,0.65,1.6,1.3,2.36,2.03c2.88,2.76,5.66,5.63,8.61,8.31c2.47,2.24,3.54,5.27,4.89,8.12
		c1.48,3.11,2.8,6.29,4.16,9.45c2.72,6.36,5.56,12.68,8.07,19.13c2.38,6.11,4.49,12.33,6.57,18.56c1.9,5.68,3.22,11.51,4.13,17.44
		c0.58,3.75,1.41,7.46,2.11,11.19c0.07,0.35,0.02,0.72,0.02,1.08c0,5.56,0.06,11.12-0.03,16.68c-0.03,1.62-0.48,3.24-0.72,4.86
		c-0.24,1.63-0.46,3.26-0.69,4.9c-0.49,3.62-0.81,7.27-1.5,10.86c-0.96,5.06-2.08,10.11-3.33,15.11
		c-1.77,7.09-3.94,14.07-6.79,20.81c-2.3,5.44-4.71,10.86-7.38,16.13c-3.36,6.65-7.25,13.01-11.8,18.93
		c-3.24,4.21-6.55,8.37-10.02,12.39c-2.72,3.16-5.54,6.29-8.63,9.08c-5.09,4.6-10.33,9.05-15.7,13.32
		c-5.06,4.03-10.32,7.82-15.57,11.6c-5.29,3.81-10.89,7.16-16.83,9.83c-5.42,2.43-10.93,4.65-16.46,6.83
		c-6.66,2.63-13.59,4.44-20.55,6.06c-4.08,0.95-8.22,1.62-12.37,2.22c-4.28,0.62-8.61,0.94-12.9,1.48
		c-5.6,0.71-11.21,1.2-16.85,0.92c-3.22-0.16-6.44-0.59-9.65-0.92c-2.19-0.23-4.39-0.43-6.57-0.74c-3.18-0.45-6.38-0.87-9.53-1.5
		c-4.21-0.84-8.45-1.65-12.57-2.86c-6.51-1.91-13.04-3.87-19.37-6.32c-6.23-2.42-12.3-5.31-18.29-8.3
		c-7.37-3.68-14.33-8.08-20.92-13.03c-4.33-3.25-8.61-6.59-12.84-9.98c-1.88-1.51-3.61-3.22-5.38-4.87
		c-1.95-1.82-3.98-3.58-5.76-5.56c-3.81-4.22-7.64-8.45-11.19-12.89c-3.37-4.22-6.56-8.62-9.53-13.13
		c-4.09-6.23-7.7-12.74-10.41-19.71c-1.72-4.44-3.59-8.85-4.97-13.4c-2.31-7.62-4.46-15.3-6.36-23.03
		c-1.4-5.65-2.39-11.41-3.4-17.15c-0.52-2.98-0.76-6.02-0.99-9.04c-0.25-3.36-0.4-6.73-0.48-10.1c-0.08-2.97-0.19-5.95,0.03-8.9
		c0.31-4.12,0.89-8.21,1.39-12.31c0.88-7.09,2.8-13.94,4.91-20.74c1.9-6.12,3.92-12.2,5.88-18.3c0.56-1.75,1.1-3.5,1.68-5.24
		c0.37-1.12,0.72-1.2,1.71-0.61c3.04,1.8,4.3,4.62,5.06,7.95c2.13,9.41,4.31,18.82,6.76,28.15c1.03,3.91,2.63,7.69,4.26,11.4
		c1.3,2.96,3.02,5.74,4.57,8.59C43.65,173.93,43.97,174.19,44.46,174.75z"/>
	<path class="st0" d="M183.01,4c0.29,1.12,0.55,2.09,0.79,3.01c-3.62,1.92-7.21,3.78-10.75,5.72c-5.26,2.89-10.37,6.04-15.01,9.87
		c-3.63,3-7.18,6.11-10.56,9.38c-4.66,4.51-8.51,9.72-11.85,15.26c-3.22,5.34-5.89,10.97-7.75,16.95
		c-1.46,4.68-2.69,9.41-3.09,14.31c-0.24,2.99-0.66,5.98-0.68,8.98c-0.04,5.22,0.48,10.4,1.36,15.55
		c0.94,5.53,2.27,10.94,4.11,16.23c2.15,6.16,4.9,12.02,8.46,17.5c2.56,3.94,5.45,7.6,8.64,11.05c5.35,5.78,11.56,10.41,18.3,14.39
		c6.9,4.08,14.33,6.81,22.1,8.59c3.09,0.71,6.25,1.12,9.4,1.5c2.94,0.36,5.9,0.59,8.85,0.72c3.7,0.17,7.42,0.39,11.11,0.22
		c8.93-0.43,17.7-1.93,26.13-5.02c7.52-2.75,14.54-6.47,20.78-11.52c3.04-2.46,6.03-5.04,8.76-7.83
		c5.11-5.21,9.49-11.04,13.19-17.33c3.98-6.79,7.75-13.7,11.62-20.56c0.05-0.1,0.17-0.16,0.44-0.42c0.33,1.61,0.7,3.05,0.92,4.52
		c0.97,6.46-0.65,12.59-2.67,18.62c-1.8,5.37-3.57,10.77-5.86,15.93c-2.22,5-4.92,9.81-7.73,14.51c-2.11,3.52-4.51,6.92-7.17,10.03
		c-3.11,3.64-6.49,7.1-10.06,10.31c-3.41,3.07-7.07,5.89-10.85,8.5c-6.76,4.67-14.13,8.2-21.86,11.04
		c-7.25,2.66-14.67,4.66-22.28,5.96c-2.94,0.5-5.9,0.99-8.87,1.17c-5.04,0.3-10.1,0.58-15.14,0.44c-3.79-0.1-7.57-0.84-11.35-1.36
		c-5.64-0.78-11.07-2.4-16.41-4.34c-6.42-2.34-12.62-5.19-18.33-8.97c-4.77-3.16-9.51-6.39-13.97-9.96
		c-3.87-3.1-7.48-6.56-10.9-10.15c-4.65-4.87-8.67-10.28-12.04-16.11c-2.76-4.78-5.29-9.7-7.04-14.96
		c-1.55-4.66-3.03-9.37-4.23-14.13c-0.86-3.41-1.33-6.93-1.77-10.42c-0.46-3.68-0.77-7.38-0.96-11.09
		c-0.15-3.12-0.23-6.27,0.01-9.38c0.47-6.03,1.62-11.95,3.34-17.75c2.63-8.89,6.28-17.38,10.63-25.54
		c2.99-5.61,6.39-10.99,10.52-15.84c2.77-3.26,5.52-6.58,8.62-9.5c3.43-3.23,7.16-6.18,10.94-9.02c4.68-3.51,9.82-6.31,15.14-8.77
		c5.54-2.56,11.24-4.73,17.18-6.16C171.09,6.75,176.99,5.41,183.01,4z"/>
	<path class="st0" d="M285.34,76.39c0.72,3.84,1.68,7.66,2.11,11.54c0.45,4.06,0.7,8.19,0.49,12.25
		c-0.45,8.61-2.84,16.73-7.11,24.26c-2.21,3.91-4.73,7.6-7.81,10.88c-2.26,2.41-4.48,4.88-6.91,7.12c-4.34,4-9.04,7.56-14.13,10.58
		c-5.87,3.49-12.15,5.94-18.79,7.43c-2.37,0.53-4.8,0.82-7.22,1.04c-2.96,0.27-5.95,0.61-8.9,0.44c-4.48-0.24-8.98-0.62-13.38-1.44
		c-5.25-0.98-10.47-2.25-15.57-3.84c-5.76-1.8-10.97-4.78-15.7-8.58c-4.92-3.95-9.07-8.57-12.56-13.8
		c-2.21-3.31-3.56-6.95-4.08-10.89c-0.03-0.23,0.03-0.46,0.07-0.9c1.24,0.52,2.38,1,3.52,1.46c4.89,1.97,9.7,4.2,14.71,5.82
		c4.37,1.42,8.93,2.25,13.45,3.16c5.63,1.14,11.37,1.19,17.08,0.92c3.64-0.17,7.25-0.85,10.87-1.37c6.11-0.88,11.97-2.72,17.63-5.12
		c6.51-2.75,12.75-6.1,18.3-10.54c3.64-2.91,7.27-5.88,10.54-9.17c3.1-3.12,5.92-6.57,8.53-10.12c3.64-4.95,7-10.11,10.42-15.22
		c1.11-1.66,1.99-3.47,3.03-5.17c0.25-0.4,0.71-0.67,1.07-1C285.1,76.23,285.22,76.31,285.34,76.39z"/>
</g>
</svg>
